<svg width="9" height="9" viewBox="0 0 9 9">
    <path
            d="M5.795 4.644a.2.2 0 0 1 0-.288l3.082-3.082A.444.444 0 0 0 9 .986.444.444 0 0 0 8.877.7L8.3.123A.444.444 0 0 0 8.014 0a.373.373 0 0 0-.288.123L4.644 3.205a.2.2 0 0 1-.288 0L1.274.123A.444.444 0 0 0 .986 0 .444.444 0 0 0 .7.123L.123.7A.444.444 0 0 0 0 .986a.444.444 0 0 0 .123.288l3.082 3.082a.2.2 0 0 1 0 .288L.123 7.726a.4.4 0 0 0 0 .575l.577.576A.444.444 0 0 0 .986 9a.444.444 0 0 0 .288-.123l3.082-3.082a.2.2 0 0 1 .288 0l3.082 3.082a.4.4 0 0 0 .575 0l.576-.577a.4.4 0 0 0 0-.575z"
            fill="white"
    />
</svg>