<svg xmlns="http://www.w3.org/2000/svg" viewBox="0 0 227.242 50.878">
    <g transform="translate(-15.3 -19.066)">
        <g transform="translate(15.3 19.066)">
            <path d="M15.3,77.471c0,7.659,5.737,13.7,13.03,13.7a13.367,13.367,0,0,0,7.2-1.983l.366-.244v1.709h8.422V64.41H35.9v1.648l-.366-.244a13.056,13.056,0,0,0-7.2-2.014C21.006,63.8,15.3,69.811,15.3,77.471ZM37,77.5c0,4.364-2.5,6.866-6.866,6.866a6.907,6.907,0,0,1,0-13.793C36.325,70.574,37,75.426,37,77.5Z"
                  transform="translate(-15.3 -50.15)" fill="inherit"/>
            <path d="M139.422,79.44V65.8H131V80.844c0,7.323,4.364,12.053,11.168,12.053a11.266,11.266,0,0,0,7.171-2.533l.427-.305v2.014h8.391V65.831h-8.422V82.552l-.061.061c-1.617,1.77-3.357,2.716-5.1,2.716C141.283,85.3,139.422,83.193,139.422,79.44Z"
                  transform="translate(-95.695 -51.539)" fill="inherit"/>
            <path d="M251,60.548c-2.868,0-4.425-1.526-4.425-4.272V48.343h9.093V41.172h-9.093V30.4l-8.453,4.333v6.439H232.9v7.171h5.218V56.52c0,7.11,4.119,11.687,10.5,11.687a22.711,22.711,0,0,0,7.842-1.251l-.915-7.079A21.722,21.722,0,0,1,251,60.548Z"
                  transform="translate(-166.5 -26.942)" fill="inherit"/>
            <path d="M333.676,63.8c-8.208,0-13.976,5.645-13.976,13.7,0,8.086,5.889,13.762,14.372,13.762,6.408,0,11.351-3.326,12.694-8.453h-8.361a4.865,4.865,0,0,1-4.211,1.922,6.021,6.021,0,0,1-6.255-4.486l-.092-.305H346.98a18.856,18.856,0,0,0,.153-2.96C347.072,69.2,341.548,63.8,333.676,63.8Zm-5.981,11.351.061-.305a5.724,5.724,0,0,1,5.859-4.669,5.174,5.174,0,0,1,5.554,4.7l.061.275Z"
                  transform="translate(-226.814 -50.15)" fill="inherit"/>
            <path d="M441.581,63.1a11.315,11.315,0,0,0-7.232,2.594l-.427.305V63.893H425.5V90.105h8.422V73.536l.061-.061c1.587-1.8,2.9-2.777,5.157-2.777,3.235,0,5.1,2.167,5.1,5.859V90.166h8.453V75.123C452.749,67.83,448.355,63.1,441.581,63.1Z"
                  transform="translate(-300.329 -49.663)" fill="inherit"/>
            <path d="M543.565,55.2c-2.868,0-4.425-1.526-4.425-4.272V42.992h9.093V35.821H539.14V22.7l-8.422,4.333v8.788H525.5v7.171h5.218V51.17c0,7.11,4.119,11.687,10.5,11.687a22.711,22.711,0,0,0,7.842-1.251l-.915-7.079A22.242,22.242,0,0,1,543.565,55.2Z"
                  transform="translate(-369.815 -21.591)" fill="inherit"/>
            <rect width="8.422" height="26.212" transform="translate(184.43 14.261)" fill="inherit"/>
            <path d="M677.93,63.8c-7.323,0-13.03,6.011-13.03,13.7s5.737,13.7,13.03,13.7a13.367,13.367,0,0,0,7.2-1.983l.366-.244v1.709h8.422V64.441H685.5v1.648l-.366-.244A12.691,12.691,0,0,0,677.93,63.8ZM686.6,77.5c0,4.364-2.5,6.866-6.866,6.866a6.907,6.907,0,0,1,0-13.793C685.924,70.574,686.6,75.426,686.6,77.5Z"
                  transform="translate(-466.677 -50.15)" fill="inherit"/>
            <path d="M621.76,19.076A4.937,4.937,0,0,0,617,23.867a4.629,4.629,0,0,0,1.4,3.387,5.107,5.107,0,0,0,3.753,1.434,4.972,4.972,0,0,0,4.852-4.76,4.586,4.586,0,0,0-1.465-3.418A4.811,4.811,0,0,0,621.76,19.076Z"
                  transform="translate(-433.394 -19.066)" fill="inherit"/>
        </g>
        <g transform="translate(140.501 64.757)">
            <rect width="27.249" height="5.187" fill="inherit"/>
        </g>
    </g>
</svg>