<svg width="4.179" height="19.468" viewBox="0 0 4.179 19.468">
    <path
            fill="#e03737"
            d="M206.4,84.4l-.443-6.159q-.125-1.8-.124-2.584a2.243,2.243,0,0,1,.6-1.665,2.148,2.148,0,0,1,1.584-.6,1.626,1.626,0,0,1,1.592.765,4.863,4.863,0,0,1,.4,2.2,15.807,15.807,0,0,1-.1,1.723l-.6,6.339a4.661,4.661,0,0,1-.416,1.737,1.1,1.1,0,0,1-1.051.6,1.055,1.055,0,0,1-1.038-.585A5.452,5.452,0,0,1,206.4,84.4Zm1.536,8.461a2.273,2.273,0,0,1-1.474-.507,1.72,1.72,0,0,1-.629-1.421,1.787,1.787,0,0,1,.6-1.357,2.086,2.086,0,0,1,1.474-.559,2.134,2.134,0,0,1,1.488.559,1.767,1.767,0,0,1,.616,1.357,1.735,1.735,0,0,1-.623,1.414A2.212,2.212,0,0,1,207.933,92.859Z"
            transform="translate(-205.83 -73.391)"
    />
</svg>