<svg width="50" height="50" viewBox="0 0 83 50" fill="none" xmlns="http://www.w3.org/2000/svg">
<path d="M76.7501 32.5C73.8821 32.5 72.3251 30.974 72.3251 28.228V20.292H81.418V13.121H72.3251V0L63.9031 4.333V13.121H58.6851V20.292H63.9031V28.47C63.9031 35.58 68.0221 40.157 74.4031 40.157C77.0703 40.2038 79.7248 39.7803 82.2451 38.906L81.3301 31.827C79.831 32.21 78.296 32.4356 76.7501 32.5Z" fill="currentColor"/>
<path d="M18.065 32.5C15.197 32.5 13.64 30.974 13.64 28.228V20.292H22.733V13.121H13.64V0L5.21802 4.333V13.121H0V20.292H5.21802V28.47C5.21802 35.58 9.33702 40.157 15.718 40.157C18.3852 40.2038 21.0398 39.7803 23.56 38.906L22.645 31.827C21.1459 32.21 19.6109 32.4356 18.065 32.5Z" fill="currentColor"/>
<path d="M44.252 12.328C41.6126 12.3227 39.0544 13.2403 37.02 14.922L36.593 15.227V13.121H28.171V39.333H36.593V22.764L36.654 22.703C38.241 20.903 39.554 19.926 41.811 19.926C45.046 19.926 46.911 22.093 46.911 25.785V39.394H55.364V24.351C55.42 17.058 51.026 12.328 44.252 12.328Z" fill="currentColor"/>
<path d="M55.4501 44.582H28.201V49.769H55.4501V44.582Z" fill="currentColor"/>
</svg>
